<?xml version="1.0" standalone="no"?>
<!DOCTYPE svg PUBLIC "-//W3C//DTD SVG 20010904//EN"
 "http://www.w3.org/TR/2001/REC-SVG-20010904/DTD/svg10.dtd">
<svg version="1.0" xmlns="http://www.w3.org/2000/svg"
 width="720.000000pt" height="720.000000pt" viewBox="0 0 720.000000 720.000000"
 preserveAspectRatio="xMidYMid meet">
<metadata>
Created by potrace 1.11, written by Peter Selinger 2001-2013
</metadata>
<g transform="translate(0.000000,720.000000) scale(0.100000,-0.100000)"
fill="#000000" stroke="none">
<path d="M4420 6316 c-12 -6 -31 -33 -42 -61 -11 -27 -24 -58 -29 -68 -5 -9
-23 -52 -40 -95 -17 -42 -40 -97 -50 -122 -11 -25 -24 -54 -28 -65 -5 -11 -14
-33 -22 -50 -7 -16 -13 -32 -14 -35 -12 -38 -30 -61 -57 -73 -18 -8 -54 -24
-80 -36 -26 -11 -114 -48 -195 -82 -253 -104 -262 -109 -263 -157 0 -23 49
-82 68 -82 20 0 307 -121 310 -131 2 -5 8 -7 13 -4 5 3 19 0 31 -7 13 -6 28
-13 34 -14 6 -1 34 -12 62 -25 41 -19 54 -31 68 -64 10 -22 32 -74 50 -115 52
-120 83 -208 76 -216 -4 -4 -2 -4 4 -1 6 3 18 -16 29 -46 23 -67 55 -130 69
-139 22 -15 73 -8 90 11 10 11 46 89 80 173 35 84 82 197 104 250 23 53 42
101 42 107 0 12 41 33 135 71 149 60 252 102 290 119 22 10 57 25 79 32 43 16
76 51 76 83 -1 44 -22 57 -205 131 -49 21 -121 51 -160 67 -38 17 -86 37 -105
45 -19 8 -50 21 -68 29 -33 14 -58 56 -46 76 4 6 2 8 -4 4 -6 -3 -14 4 -17 16
-4 13 -15 41 -25 63 -10 22 -46 108 -80 190 -76 184 -97 225 -113 226 -6 0
-19 2 -28 4 -9 1 -27 -2 -39 -9z"/>
<path d="M2838 4774 c-29 -9 -63 -30 -87 -53 -40 -39 -42 -43 -453 -878 -54
-111 -102 -204 -106 -207 -4 -2 -28 -7 -52 -11 -25 -3 -56 -8 -70 -10 -14 -2
-61 -9 -105 -15 -44 -6 -91 -13 -104 -15 -13 -2 -43 -7 -65 -10 -41 -6 -52 -8
-136 -19 -25 -3 -56 -8 -70 -11 -14 -2 -45 -7 -70 -10 -25 -4 -56 -8 -70 -10
-42 -7 -243 -35 -285 -41 -22 -2 -51 -7 -65 -9 -14 -3 -35 -7 -47 -10 -69 -13
-141 -73 -171 -144 -8 -21 -14 -63 -14 -98 2 -110 -14 -92 522 -612 74 -72
130 -131 125 -132 -6 0 -2 -3 7 -7 9 -4 64 -53 122 -110 117 -114 108 -92 85
-217 -18 -101 -21 -121 -24 -145 -2 -14 -6 -41 -10 -60 -3 -19 -8 -46 -10 -60
-2 -14 -20 -116 -39 -228 -20 -112 -36 -207 -36 -213 0 -6 -6 -7 -12 -3 -10 5
-10 4 -2 -5 8 -9 9 -25 2 -54 -5 -23 -11 -51 -13 -62 -8 -62 -17 -114 -24
-145 -28 -126 33 -247 148 -296 53 -23 153 -15 216 17 67 34 298 155 360 189
28 15 100 53 160 85 61 32 142 74 180 95 39 20 119 63 179 95 l108 57 117 -60
c185 -96 206 -107 211 -112 3 -3 37 -21 75 -40 39 -19 73 -39 76 -43 3 -5 9
-8 13 -8 7 1 81 -35 161 -79 28 -15 130 -68 227 -119 166 -85 182 -91 238 -91
71 0 112 15 164 60 75 66 97 152 70 281 -11 54 -17 92 -29 174 -2 11 -8 49
-15 85 -19 108 -20 113 -30 180 -20 122 -27 160 -35 200 -3 14 -8 41 -11 60
-3 19 -18 108 -33 197 l-28 163 211 205 c694 675 660 637 671 744 8 86 -37
177 -114 225 -43 27 -74 35 -196 51 -42 5 -254 37 -335 50 -14 2 -61 9 -105
15 -44 6 -91 12 -105 14 -47 8 -125 19 -150 22 -26 3 -88 12 -131 19 -13 2
-62 9 -109 15 l-85 12 -34 72 c-38 81 -420 858 -454 924 -67 133 -178 185
-309 146z"/>
<path d="M5628 4613 c-19 -5 -21 -10 -124 -260 l-79 -192 -57 -25 c-32 -14
-61 -26 -66 -26 -5 0 -32 -11 -60 -25 -29 -14 -58 -25 -66 -25 -8 0 -17 -4
-20 -9 -3 -4 -34 -19 -68 -31 -105 -39 -131 -65 -112 -114 3 -8 87 -49 187
-91 100 -43 200 -85 223 -95 40 -19 41 -21 124 -222 46 -112 90 -213 98 -225
14 -23 55 -31 78 -15 10 7 44 74 44 87 0 3 11 30 24 58 13 29 43 99 66 155 59
147 61 151 84 158 25 7 60 22 139 58 32 14 60 26 62 26 20 0 203 86 217 101
18 21 14 51 -10 72 -10 8 -78 39 -152 70 -243 101 -275 116 -283 129 -4 7 -46
105 -93 218 -47 113 -88 208 -92 211 -11 10 -45 17 -64 12z"/>
</g>
</svg>
